# xmcd
#
# Track frame offsets:
#	150
#	11437
#	28287
#	45087
#	62007
#	77735
#	93680
#	110202
#	125862
#
# Disc length: 1909 seconds
# Revision: 4
# Processed by: cddbd v1.5.2PL0 Copyright (c) Steve Scherf et al.
# Submitted via: dBpowerAMP V12.0
#
DISCID=76077309
DTITLE=The Judds - Heart Land (1987 JP)
DYEAR=1987
DGENRE=Vocal
TTITLE0=Don't Be Cruel
TTITLE1=I'm Falling in Love Tonight
TTITLE2=Turn it Loose
TTITLE3=Old Pictures
TTITLE4=Cow Cow Boogie
TTITLE5=May be Your Baby's Got the Blues
TTITLE6=I Know Where I'm Going
TTITLE7=Why Don't You Believe Me
TTITLE8=The Sweetest Gift
EXTD=
EXTT0=
EXTT1=
EXTT2=
EXTT3=
EXTT4=
EXTT5=
EXTT6=
EXTT7=
EXTT8=
PLAYORDER=
